<?xml version="1.0" standalone="no"?>
<!DOCTYPE svg PUBLIC "-//W3C//DTD SVG 20010904//EN"
 "http://www.w3.org/TR/2001/REC-SVG-20010904/DTD/svg10.dtd">
<svg version="1.0" xmlns="http://www.w3.org/2000/svg"
 width="424.000000pt" height="424.000000pt" viewBox="0 0 424.000000 424.000000"
 preserveAspectRatio="xMidYMid meet">
<metadata>
Created by potrace 1.11, written by Peter Selinger 2001-2013
</metadata>
<g transform="translate(0.000000,424.000000) scale(0.100000,-0.100000)"
fill="#000000" stroke="none">
<path d="M2098 4236 c-1 -2 -56 -6 -121 -10 -66 -3 -122 -8 -126 -10 -3 -2
-32 -7 -64 -11 -168 -18 -463 -116 -656 -217 -238 -126 -483 -323 -640 -518
-29 -36 -60 -74 -68 -84 -63 -78 -253 -408 -253 -440 0 -3 -9 -25 -19 -49 -49
-106 -110 -333 -126 -467 -3 -25 -8 -56 -11 -70 -10 -45 -12 -373 -3 -460 8
-71 34 -220 53 -305 40 -181 165 -462 289 -650 235 -355 589 -640 991 -799
270 -107 500 -146 816 -141 107 2 213 6 235 10 98 15 247 48 325 72 47 15 90
27 95 29 36 8 188 75 285 126 403 212 719 538 920 953 103 210 177 458 196
650 3 39 8 79 10 90 6 27 5 344 0 375 -3 14 -7 50 -11 80 -3 30 -7 62 -10 70
-2 8 -6 33 -10 54 -11 75 -67 278 -94 341 -5 11 -15 36 -22 55 -30 84 -126
266 -190 363 l-41 61 26 91 c27 95 31 119 19 112 -5 -3 -44 -8 -88 -12 -43 -3
-82 -8 -85 -10 -4 -2 -42 32 -86 76 -380 385 -870 608 -1394 635 -63 3 -120 7
-127 9 -6 2 -13 2 -15 1z"/>
</g>
</svg>
