<?xml version="1.0" encoding="UTF-8" standalone="no"?>
<svg
   xmlns:dc="http://purl.org/dc/elements/1.1/"
   xmlns:cc="http://creativecommons.org/ns#"
   xmlns:rdf="http://www.w3.org/1999/02/22-rdf-syntax-ns#"
   xmlns:svg="http://www.w3.org/2000/svg"
   xmlns="http://www.w3.org/2000/svg"
   xmlns:sodipodi="http://sodipodi.sourceforge.net/DTD/sodipodi-0.dtd"
   xmlns:inkscape="http://www.inkscape.org/namespaces/inkscape"
   xml:space="preserve"
   enable-background="new 0 0 595.28 841.89"
   viewBox="0 0 118.05 119.98"
   height="119.98"
   width="118.05"
   y="0px"
   x="0px"
   id="图层_1"
   version="1.1"
   sodipodi:docname="wcy_logo - 优化.svg"
   inkscape:version="0.92.0 r15299"><sodipodi:namedview
   pagecolor="#ffffff"
   bordercolor="#666666"
   borderopacity="1"
   objecttolerance="10"
   gridtolerance="10"
   guidetolerance="10"
   inkscape:pageopacity="0"
   inkscape:pageshadow="2"
   inkscape:window-width="1600"
   inkscape:window-height="838"
   id="namedview67"
   showgrid="false"
   inkscape:zoom="5.3842306"
   inkscape:cx="59.025002"
   inkscape:cy="59.990002"
   inkscape:window-x="-8"
   inkscape:window-y="-8"
   inkscape:window-maximized="1"
   inkscape:current-layer="图层_1" /><metadata
   id="metadata131"><rdf:RDF><cc:Work
       rdf:about=""><dc:format>image/svg+xml</dc:format><dc:type
         rdf:resource="http://purl.org/dc/dcmitype/StillImage" /><dc:title></dc:title></cc:Work></rdf:RDF></metadata><defs
   id="defs129" />
<g
   transform="translate(-215.21499,-275.679)"
   id="g124">
	<ellipse
   style="fill:#ffffff"
   id="ellipse18"
   ry="59.990002"
   rx="59.025002"
   cy="335.66901"
   cx="274.23999" />
	<g
   id="g122">
		<g
   id="g34">
			<path
   style="fill:#006098"
   id="path20"
   d="m 236.162,318.122 -0.061,-3.941 -1.951,1.133 -1.939,-1.121 -0.736,1.316 -0.564,-0.326 4.002,-7.158 0.566,0.326 -0.736,1.316 1.939,1.121 0.043,2.285 3.361,-1.967 0.32,0.566 -3.674,2.143 0.068,4.297 z m -3.232,-6.663 -1.027,0.275 -0.154,-0.65 1.023,-0.273 z m 3.117,-0.279 -1.627,-0.939 -1.889,3.377 1.627,0.939 1.93,-1.111 z" />
			<path
   style="fill:#006098"
   id="path22"
   d="m 241.803,300.215 -1.219,-0.135 0.082,-0.645 1.219,0.135 z m 0.136,2.354 -1.092,-1.322 5.959,-5.078 1.063,1.285 -0.498,0.426 -0.645,-0.781 -4.963,4.229 0.676,0.816 z m 1.926,-4.111 -1.217,-0.133 0.08,-0.646 1.219,0.137 z m -0.914,3.033 3.555,-3.031 0.557,0.676 -0.305,1.699 2.414,-2.061 0.416,0.51 -2.723,2.322 1.373,1.666 -1.586,1.352 -0.416,-0.508 1.086,-0.926 -0.957,-1.158 -2.982,2.541 -0.418,-0.508 3.004,-2.559 0.361,-2.033 -2.961,2.523 z m 2.055,-4.578 0.082,-1.244 0.637,0.031 -0.08,1.242 z" />
			<path
   style="fill:#006098"
   id="path24"
   d="m 255.725,289.569 0.168,1 6.008,-2.156 0.217,0.623 -6.111,2.193 0.246,1.4 0.039,0.113 6.258,-2.246 1.557,4.484 -3.975,1.426 -0.217,-0.623 3.363,-1.209 -1.125,-3.234 -6.258,2.244 -0.264,-0.762 -0.539,-3.143 z m 0.076,5.617 5.873,-2.107 0.217,0.621 -5.875,2.109 z" />
			<path
   style="fill:#006098"
   id="path26"
   d="m 273.303,286.379 -0.662,0.91 -0.104,6.754 -0.65,-0.012 0.09,-5.846 -0.674,0.908 -0.518,-0.402 2.01,-2.711 z m 2.867,-0.246 -0.283,0.818 2.746,0.045 -0.012,0.66 -2.961,-0.047 -0.377,1.098 3.475,0.055 -0.01,0.66 -3.691,-0.057 -0.361,1.049 -0.002,0.129 3.459,0.053 -0.014,0.936 -1.395,1.439 1.539,0.326 -0.137,0.641 -4.752,-1.021 0.145,-0.639 2.449,0.523 1.496,-1.555 -3.449,-0.053 0.012,-0.908 0.322,-0.932 -1.092,-0.018 0.01,-0.66 1.309,0.02 0.377,-1.096 -1.516,-0.023 0.01,-0.66 1.734,0.025 0.357,-1.029 z" />
			<path
   style="fill:#006098"
   id="path28"
   d="m 289.072,288.252 -0.51,1.324 1.74,0.693 -0.238,0.617 -0.396,-0.16 -1.365,3.537 -0.811,0.396 0.523,1.354 -0.596,0.236 -0.512,-1.311 -1.252,0.605 -0.279,-0.586 1.299,-0.625 -0.322,-0.848 1.365,-3.535 -0.41,-0.166 0.236,-0.615 0.41,0.166 0.514,-1.324 z m -1.285,5.541 1.275,-3.307 -0.736,-0.295 -1.279,3.307 0.213,0.555 z m 2.152,3.52 0.736,-1.914 -2.02,0.918 -0.266,-0.596 2.15,-0.971 -1.684,-0.668 0.238,-0.615 2.018,0.805 0.277,-0.717 -1.313,-0.523 0.998,-2.58 -0.705,-0.283 0.234,-0.613 0.707,0.281 0.256,-0.666 0.607,0.24 -0.256,0.666 2,0.799 0.256,-0.666 0.604,0.242 -0.256,0.666 0.707,0.279 -0.238,0.617 -0.705,-0.281 -0.996,2.58 -1.297,-0.518 -0.275,0.717 2,0.801 -0.236,0.613 -1.666,-0.664 0.92,2.191 -0.592,0.256 -0.863,-2.068 -0.738,1.912 z m 2.983,-3.857 0.76,-1.967 -2,-0.797 -0.762,1.965 z m -0.676,-0.635 -0.494,-1.154 0.584,-0.26 0.494,1.156 z" />
			<path
   style="fill:#006098"
   id="path30"
   d="m 302.545,299.243 3.463,3.143 -0.576,0.658 -1.701,-0.066 2.35,2.135 -0.434,0.492 -2.652,-2.408 -1.426,1.621 -1.543,-1.4 0.434,-0.49 1.057,0.959 0.994,-1.129 -2.904,-2.637 0.434,-0.492 2.926,2.652 2.029,0.072 -2.883,-2.617 z m -1.195,-0.862 1.133,-1.287 5.801,5.266 -1.102,1.254 -0.486,-0.441 0.67,-0.76 -4.832,-4.385 -0.697,0.793 z m 2.271,-0.474 -0.043,-1.246 0.641,-0.012 0.043,1.248 z m 2.008,1.82 -0.043,-1.244 0.637,-0.01 0.047,1.244 z m 1.67,0.928 1.223,-0.098 0.061,0.646 -1.221,0.098 z" />
			<path
   style="fill:#006098"
   id="path32"
   d="m 308.164,312.616 6.936,-3.701 1.082,2.096 -1.998,1.066 -1.295,-0.023 0.289,0.561 -3.012,1.609 -0.592,-1.146 0.574,-0.309 0.291,0.563 1.863,-0.994 -0.326,-0.625 0.586,-0.313 1.457,0.021 1.285,-0.686 -0.477,-0.928 -6.363,3.395 z m 6.275,5.615 -0.623,-1.203 -1.934,1.033 0.146,0.283 0.873,-0.162 0.123,0.65 -1.352,0.242 -0.668,-1.291 2.51,-1.34 -0.639,-1.234 -1.822,0.975 -1.209,-0.549 0.25,-0.6 0.93,0.418 1.551,-0.828 -0.486,-0.943 0.574,-0.307 2.35,4.547 z m 1.11,-1.006 -2.02,-3.908 0.576,-0.307 2.02,3.906 z m -1.076,-4.629 1.441,-0.768 0.947,1.836 0.773,-0.414 0.303,0.586 -0.775,0.414 0.943,1.828 -1.406,0.748 -0.303,-0.584 0.832,-0.443 -1.588,-3.078 -0.865,0.461 z" />
		</g>
		<g
   id="g88">
			<path
   style="fill:#006098"
   id="path36"
   d="m 228.055,335.276 c -0.061,-0.002 -0.121,-0.016 -0.18,-0.041 -0.057,-0.025 -0.107,-0.061 -0.154,-0.107 -0.047,-0.045 -0.082,-0.104 -0.109,-0.17 -0.027,-0.064 -0.043,-0.141 -0.043,-0.225 l 0.023,-2.637 0.316,0.002 -0.02,2.203 c 0,0.039 0.014,0.078 0.047,0.105 0.027,0.031 0.064,0.047 0.105,0.047 l 1.238,0.012 c 0.047,0.002 0.088,-0.016 0.123,-0.045 0.033,-0.033 0.049,-0.078 0.051,-0.135 l 0.018,-1.748 c 0,-0.121 0.045,-0.227 0.131,-0.311 0.086,-0.084 0.193,-0.127 0.314,-0.125 l 0.652,0.006 c 0.133,0.002 0.236,0.043 0.309,0.125 0.076,0.084 0.111,0.207 0.109,0.369 l -0.023,2.7 -0.314,-0.004 0.02,-2.192 c 0,-0.051 -0.01,-0.09 -0.031,-0.123 -0.02,-0.035 -0.057,-0.053 -0.111,-0.053 l -0.586,-0.006 c -0.045,0 -0.08,0.016 -0.109,0.043 -0.029,0.029 -0.045,0.064 -0.045,0.109 l -0.016,1.727 c 0,0.086 -0.018,0.158 -0.047,0.217 -0.031,0.063 -0.072,0.112 -0.121,0.153 -0.051,0.039 -0.105,0.068 -0.164,0.086 -0.059,0.02 -0.121,0.027 -0.18,0.027 z" />
			<path
   style="fill:#006098"
   id="path38"
   d="m 231.369,340.392 -0.314,0.031 -0.221,-2.207 c -0.004,-0.045 -0.023,-0.078 -0.053,-0.104 -0.033,-0.027 -0.072,-0.037 -0.115,-0.031 l -2.447,0.252 c -0.041,0.004 -0.076,0.023 -0.104,0.055 -0.028,0.032 -0.039,0.07 -0.035,0.113 l 0.223,2.205 -0.316,0.033 -0.271,-2.734 c -0.008,-0.061 0,-0.119 0.018,-0.174 0.018,-0.059 0.043,-0.107 0.078,-0.148 0.037,-0.043 0.078,-0.078 0.129,-0.107 0.049,-0.029 0.105,-0.047 0.166,-0.053 l 2.51,-0.26 c 0.121,-0.014 0.229,0.02 0.32,0.096 0.096,0.078 0.146,0.176 0.158,0.297 z" />
			<path
   style="fill:#006098"
   id="path40"
   d="m 228.994,346.132 -0.168,-0.801 1.918,-0.416 -0.318,-1.512 -1.918,0.416 -0.168,-0.805 3.324,-0.723 0.166,0.807 -1.09,0.236 0.318,1.512 1.09,-0.234 0.17,0.801 z" />
			<path
   style="fill:#006098"
   id="path42"
   d="m 229.695,348.696 c -0.018,-0.057 -0.023,-0.115 -0.018,-0.174 0.006,-0.061 0.021,-0.111 0.047,-0.162 0.025,-0.049 0.057,-0.094 0.102,-0.133 0.043,-0.039 0.092,-0.068 0.15,-0.088 l 2.813,-0.943 1.021,3.143 -2.814,0.945 c -0.057,0.018 -0.113,0.025 -0.172,0.021 -0.057,-0.008 -0.109,-0.021 -0.158,-0.047 -0.049,-0.023 -0.094,-0.057 -0.131,-0.098 -0.039,-0.043 -0.068,-0.094 -0.086,-0.15 z m 0.563,0.213 c -0.037,0.012 -0.066,0.035 -0.088,0.074 -0.02,0.035 -0.023,0.076 -0.012,0.117 l 0.426,1.305 c 0.014,0.039 0.037,0.068 0.076,0.086 0.039,0.02 0.078,0.023 0.117,0.01 l 2.48,-0.832 -0.516,-1.594 z" />
			<path
   style="fill:#006098"
   id="path44"
   d="m 231.547,353.856 c -0.023,-0.055 -0.037,-0.113 -0.037,-0.172 0,-0.059 0.01,-0.115 0.029,-0.166 0.019,-0.051 0.047,-0.1 0.086,-0.145 0.039,-0.043 0.084,-0.076 0.143,-0.104 l 2.689,-1.254 1.357,3.01 -2.691,1.254 c -0.055,0.025 -0.111,0.037 -0.17,0.039 -0.057,0.002 -0.111,-0.008 -0.162,-0.027 -0.051,-0.018 -0.1,-0.047 -0.143,-0.082 -0.041,-0.039 -0.078,-0.086 -0.1,-0.139 z m 0.582,0.145 c -0.037,0.018 -0.063,0.045 -0.08,0.086 -0.014,0.039 -0.014,0.078 0.004,0.115 l 0.564,1.252 c 0.016,0.037 0.043,0.063 0.084,0.076 0.041,0.016 0.08,0.014 0.115,-0.004 l 2.377,-1.107 -0.688,-1.523 z" />
			<path
   style="fill:#006098"
   id="path46"
   d="m 234.568,358.882 c -0.035,0.021 -0.059,0.051 -0.07,0.092 -0.011,0.041 -0.008,0.08 0.016,0.117 l 0.746,1.297 -0.271,0.16 -1.014,-1.752 c -0.027,-0.051 -0.049,-0.107 -0.053,-0.164 -0.006,-0.063 -0.004,-0.115 0.01,-0.172 0.016,-0.051 0.039,-0.102 0.074,-0.148 0.033,-0.049 0.076,-0.088 0.129,-0.119 l 2.553,-1.523 0.408,0.705 z" />
			<path
   style="fill:#006098"
   id="path48"
   d="m 239.354,366.56 c -0.041,-0.045 -0.07,-0.096 -0.088,-0.15 -0.02,-0.057 -0.025,-0.113 -0.021,-0.168 0.002,-0.057 0.016,-0.109 0.039,-0.162 0.023,-0.055 0.059,-0.104 0.104,-0.145 l 2.195,-2.02 2.186,2.453 -2.191,2.021 c -0.047,0.039 -0.098,0.07 -0.152,0.09 -0.053,0.018 -0.107,0.025 -0.162,0.023 -0.057,-0.002 -0.109,-0.014 -0.16,-0.037 -0.053,-0.021 -0.098,-0.055 -0.141,-0.102 z m 0.597,-0.038 c -0.031,0.027 -0.049,0.061 -0.053,0.105 -0.004,0.041 0.01,0.076 0.039,0.109 l 0.91,1.02 c 0.025,0.029 0.061,0.045 0.104,0.047 0.043,0.002 0.078,-0.012 0.107,-0.039 l 1.939,-1.783 -1.111,-1.244 z" />
			<path
   style="fill:#006098"
   id="path50"
   d="m 242.822,370.257 2.246,-2.59 2.357,2.107 -0.211,0.24 -1.75,-1.568 -0.58,0.67 1.719,1.537 -0.211,0.246 -1.717,-1.537 -1.248,1.438 z" />
			<path
   style="fill:#006098"
   id="path52"
   d="m 252.068,376.597 c -0.021,0.035 -0.025,0.076 -0.016,0.115 0.008,0.041 0.033,0.072 0.068,0.096 l 1.287,0.736 -0.156,0.279 -1.738,-0.998 c -0.053,-0.031 -0.096,-0.068 -0.131,-0.117 -0.033,-0.047 -0.057,-0.098 -0.072,-0.15 -0.014,-0.055 -0.018,-0.109 -0.014,-0.168 0.006,-0.059 0.025,-0.113 0.055,-0.17 l 1.455,-2.619 0.701,0.4 z" />
			<path
   style="fill:#006098"
   id="path54"
   d="m 255.686,379.017 -0.729,-0.346 1.432,-3.131 0.73,0.344 z" />
			<path
   style="fill:#006098"
   id="path56"
   d="m 258.803,380.323 1.045,-2.947 -1.094,-0.4 0.107,-0.303 2.953,1.082 -0.109,0.301 -1.098,-0.402 -1.047,2.949 z" />
			<path
   style="fill:#006098"
   id="path58"
   d="m 263.266,381.761 c -0.057,-0.012 -0.111,-0.037 -0.156,-0.074 -0.047,-0.033 -0.084,-0.076 -0.111,-0.125 -0.029,-0.047 -0.049,-0.098 -0.061,-0.154 -0.01,-0.061 -0.008,-0.117 0.008,-0.178 l 0.67,-2.932 3.057,0.725 -0.072,0.313 -2.27,-0.539 -0.199,0.867 2.229,0.527 -0.074,0.32 -2.229,-0.529 -0.32,1.402 c -0.01,0.041 -0.004,0.08 0.016,0.115 0.021,0.037 0.053,0.061 0.094,0.07 l 2.127,0.504 -0.072,0.313 z" />
			<path
   style="fill:#006098"
   id="path60"
   d="m 271.645,379.696 -0.139,1.293 c -0.01,0.063 -0.025,0.117 -0.057,0.168 -0.027,0.051 -0.064,0.096 -0.107,0.133 -0.041,0.035 -0.088,0.064 -0.143,0.08 -0.053,0.016 -0.109,0.02 -0.168,0.014 l -0.064,-0.006 0.305,1.752 -0.842,-0.094 -0.279,-1.752 -1.01,-0.111 -0.184,1.697 -0.807,-0.092 0.375,-3.434 z m -1.104,1.305 c 0.039,0.004 0.076,-0.006 0.109,-0.029 0.033,-0.025 0.051,-0.061 0.055,-0.105 l 0.104,-0.939 -1.512,-0.172 -0.119,1.092 z" />
			<path
   style="fill:#006098"
   id="path62"
   d="m 273.27,383.259 1.443,-3.473 1.115,-0.016 1.5,3.436 -0.91,0.012 -0.355,-0.85 -1.924,0.023 -0.357,0.859 z m 1.011,-1.205 1.639,-0.02 -0.814,-1.963 z" />
			<path
   style="fill:#006098"
   id="path64"
   d="m 280.465,382.87 -0.412,-3.105 -1.152,0.158 -0.043,-0.32 3.107,-0.426 0.043,0.316 -1.156,0.162 0.412,3.104 z" />
			<path
   style="fill:#006098"
   id="path66"
   d="m 285.063,382.048 c -0.055,0.018 -0.115,0.02 -0.17,0.01 -0.059,-0.012 -0.109,-0.031 -0.158,-0.059 -0.045,-0.029 -0.086,-0.066 -0.123,-0.113 -0.035,-0.047 -0.059,-0.1 -0.076,-0.16 l -0.736,-2.914 0.779,-0.203 0.73,2.885 c 0.01,0.039 0.033,0.072 0.068,0.096 0.033,0.021 0.072,0.027 0.115,0.018 l 1.193,-0.313 c 0.039,-0.01 0.068,-0.033 0.09,-0.072 0.021,-0.037 0.027,-0.074 0.018,-0.117 l -0.73,-2.883 0.775,-0.203 0.736,2.916 c 0.016,0.059 0.018,0.119 0.01,0.176 -0.01,0.059 -0.027,0.111 -0.055,0.158 -0.027,0.049 -0.064,0.092 -0.107,0.127 -0.043,0.035 -0.094,0.063 -0.152,0.076 z" />
			<path
   style="fill:#006098"
   id="path68"
   d="m 291.557,376.28 0.463,1.213 c 0.021,0.059 0.031,0.119 0.029,0.176 -0.004,0.059 -0.016,0.113 -0.035,0.166 -0.021,0.051 -0.051,0.1 -0.092,0.139 -0.039,0.039 -0.088,0.07 -0.143,0.092 l -0.063,0.027 1.068,1.41 -0.787,0.311 -1.045,-1.422 -0.945,0.373 0.607,1.592 -0.756,0.301 -1.23,-3.223 z m -0.387,1.676 c 0.039,-0.014 0.064,-0.041 0.084,-0.078 0.016,-0.035 0.018,-0.074 0.002,-0.117 l -0.338,-0.883 -1.418,0.559 0.393,1.023 z" />
			<path
   style="fill:#006098"
   id="path70"
   d="m 295.248,378.327 c -0.053,0.029 -0.107,0.045 -0.164,0.051 -0.061,0.004 -0.113,-0.004 -0.166,-0.021 -0.051,-0.016 -0.102,-0.043 -0.146,-0.08 -0.047,-0.035 -0.084,-0.08 -0.111,-0.135 l -1.391,-2.656 2.771,-1.5 0.145,0.283 -2.057,1.113 0.412,0.789 2.02,-1.094 0.15,0.287 -2.02,1.094 0.666,1.27 c 0.02,0.037 0.047,0.063 0.088,0.076 0.039,0.016 0.078,0.012 0.115,-0.01 l 1.928,-1.043 0.146,0.285 z" />
			<path
   style="fill:#006098"
   id="path72"
   d="m 303.457,373.005 -1.127,-3.594 0.836,-0.746 3.338,1.619 -0.684,0.609 -0.813,-0.412 -1.445,1.291 0.279,0.889 z m -0.006,-1.582 1.232,-1.1 -1.875,-0.955 z" />
			<path
   style="fill:#006098"
   id="path74"
   d="m 305.365,366.534 1.807,-2.053 c 0.043,-0.045 0.086,-0.08 0.137,-0.104 0.051,-0.024 0.104,-0.037 0.16,-0.039 0.057,0 0.111,0.01 0.166,0.025 0.055,0.02 0.104,0.047 0.152,0.092 l 2.203,2.006 -0.535,0.609 -2.184,-1.986 c -0.033,-0.029 -0.07,-0.043 -0.111,-0.041 -0.043,0.004 -0.076,0.021 -0.104,0.051 l -0.914,1.039 2.297,2.09 -0.541,0.613 z" />
			<path
   style="fill:#006098"
   id="path76"
   d="m 310.195,360.409 c 0.037,-0.049 0.078,-0.088 0.127,-0.117 0.045,-0.031 0.098,-0.051 0.152,-0.057 0.057,-0.008 0.111,-0.006 0.168,0.006 0.057,0.01 0.109,0.035 0.158,0.072 l 2.061,1.479 c 0.051,0.037 0.09,0.08 0.119,0.129 0.031,0.051 0.051,0.104 0.061,0.158 0.01,0.054 0.01,0.109 0,0.168 -0.01,0.055 -0.035,0.107 -0.07,0.16 l -1.564,2.244 -2.773,-1.992 z m 2.219,2.244 c 0.021,-0.035 0.031,-0.072 0.021,-0.113 -0.008,-0.043 -0.029,-0.078 -0.061,-0.102 l -2.01,-1.443 c -0.037,-0.027 -0.074,-0.035 -0.115,-0.027 -0.041,0.008 -0.074,0.029 -0.098,0.061 l -0.797,1.148 2.26,1.623 z" />
			<path
   style="fill:#006098"
   id="path78"
   d="m 316.727,353.208 -2.088,-1.467 0.385,-0.967 3.447,0.549 -0.18,0.453 -3.115,-0.525 2.588,1.852 -0.164,0.408 c -0.029,0.074 -0.068,0.137 -0.115,0.184 -0.051,0.047 -0.113,0.066 -0.193,0.055 l -2.941,-0.428 2.641,1.723 -0.283,0.709 -2.893,-1.941 0.391,-0.979 z" />
			<path
   style="fill:#006098"
   id="path80"
   d="m 319.193,348.892 c -0.016,0.057 -0.043,0.109 -0.078,0.154 -0.037,0.045 -0.078,0.084 -0.127,0.109 -0.047,0.029 -0.1,0.047 -0.156,0.057 -0.059,0.008 -0.113,0.004 -0.174,-0.012 l -2.861,-0.775 0.809,-3.082 0.305,0.084 -0.602,2.289 0.848,0.229 0.59,-2.244 0.311,0.082 -0.59,2.246 1.369,0.373 c 0.039,0.01 0.078,0.006 0.117,-0.014 0.035,-0.02 0.059,-0.051 0.068,-0.092 l 0.563,-2.145 0.307,0.082 z" />
			<path
   style="fill:#006098"
   id="path82"
   d="m 317.391,340.739 c 0.008,-0.061 0.027,-0.115 0.057,-0.164 0.029,-0.047 0.068,-0.086 0.113,-0.119 0.047,-0.033 0.098,-0.057 0.152,-0.072 0.054,-0.015 0.113,-0.02 0.174,-0.01 l 2.496,0.379 c 0.061,0.01 0.115,0.029 0.162,0.063 0.049,0.029 0.09,0.068 0.125,0.111 0.031,0.045 0.055,0.094 0.072,0.15 0.016,0.055 0.02,0.113 0.01,0.176 l -0.4,2.721 -3.361,-0.51 z m 2.972,0.989 c 0.004,-0.041 -0.006,-0.078 -0.031,-0.113 -0.023,-0.033 -0.059,-0.055 -0.1,-0.059 l -2.434,-0.373 c -0.045,-0.004 -0.082,0.004 -0.115,0.029 -0.031,0.027 -0.053,0.059 -0.059,0.1 l -0.201,1.389 2.734,0.416 z" />
			<path
   style="fill:#006098"
   id="path84"
   d="m 321.047,337.78 -0.051,0.816 -3.393,-0.215 0.051,-0.818 z" />
			<path
   style="fill:#006098"
   id="path86"
   d="m 321.152,335.829 -3.439,-1.417 -0.029,-1.133 3.359,-1.574 0.023,0.926 -0.832,0.371 0.055,1.955 0.85,0.35 z m -1.201,-1.008 -0.043,-1.668 -1.92,0.857 z" />
		</g>
		<path
   style="fill:#006098"
   id="path90"
   d="m 330.795,333.797 c -0.473,-14.711 -6.387,-28.529 -16.648,-38.912 -10.211,-10.332 -23.75,-16.281 -38.113,-16.762 -1.244,-0.039 -2.502,-0.039 -3.75,0 -15.127,0.506 -29.164,6.955 -39.523,18.174 -10.352,11.229 -15.785,25.869 -15.291,41.237 0.473,14.713 6.381,28.531 16.646,38.912 10.213,10.332 23.748,16.287 38.117,16.764 1.236,0.041 2.498,0.045 3.74,-0.004 15.139,-0.492 29.17,-6.953 39.521,-18.168 10.361,-11.221 15.785,-25.869 15.301,-41.241 m -1.506,2.854 c -0.029,1.246 -0.064,2.531 -0.188,3.801 -0.098,1.258 -0.26,2.607 -0.496,4.154 l -0.066,0.424 -2.262,-0.367 0.055,-0.408 c 0.043,-0.297 0.086,-0.59 0.129,-0.887 0.055,-0.373 0.109,-0.766 0.156,-1.146 l -0.611,-0.068 c -0.164,1.291 -0.34,2.605 -0.617,3.91 -0.234,1.262 -0.557,2.609 -1.002,4.199 l 0.594,0.176 c 0.158,-0.533 0.289,-1.078 0.422,-1.613 l 0.189,-0.771 2.223,0.553 -0.096,0.41 c -0.27,1.234 -0.645,2.465 -1.002,3.648 l -0.111,0.377 -0.432,-0.137 0.426,0.156 -0.256,0.74 c -0.359,1.047 -0.732,2.133 -1.186,3.182 l -0.156,0.379 -2.127,-0.883 0.17,-0.404 c 0.26,-0.611 0.506,-1.25 0.727,-1.887 l -0.572,-0.207 c -0.418,1.186 -0.904,2.352 -1.502,3.701 l -0.402,-0.186 0.402,0.191 c -0.523,1.166 -1.135,2.391 -1.912,3.84 l 0.527,0.305 c 0.186,-0.34 0.365,-0.684 0.543,-1.021 0.129,-0.262 0.27,-0.523 0.408,-0.781 l 0.195,-0.363 2.037,1.057 -0.191,0.385 c -0.756,1.477 -1.414,2.666 -2.066,3.732 -0.721,1.203 -1.484,2.375 -2.283,3.488 l -0.238,0.34 -1.881,-1.359 0.268,-0.346 c 0.332,-0.447 0.643,-0.924 0.934,-1.391 0.068,-0.092 0.131,-0.186 0.189,-0.287 l -0.506,-0.334 c -0.699,1.088 -1.512,2.232 -2.479,3.492 l -0.49,-0.385 0.49,0.385 c -0.795,1.029 -1.672,2.074 -2.754,3.283 l 0.445,0.414 1.617,-1.834 1.74,1.52 -0.281,0.328 c -0.842,0.965 -1.828,2.102 -2.881,3.141 v -0.006 c -0.947,0.992 -1.951,1.906 -2.928,2.783 l -0.316,0.281 -1.512,-1.773 0.33,-0.279 c 0.398,-0.332 0.783,-0.695 1.152,-1.051 0.107,-0.105 0.215,-0.205 0.326,-0.311 l -0.416,-0.439 c -0.977,0.926 -1.998,1.805 -2.977,2.619 -1.266,1.004 -2.355,1.818 -3.391,2.539 l 0.334,0.508 c 0.123,-0.084 0.238,-0.168 0.363,-0.252 0.422,-0.295 0.863,-0.596 1.273,-0.91 l 0.338,-0.256 1.373,1.887 -0.844,0.607 c -0.943,0.668 -1.916,1.369 -2.93,1.982 -1,0.664 -2.063,1.252 -3.086,1.828 l -0.842,0.467 -1.07,-2.063 2.125,-1.195 -0.309,-0.527 c -1.063,0.605 -2.268,1.273 -3.502,1.848 -1.455,0.707 -2.705,1.252 -3.887,1.697 l 0.213,0.584 c 0.615,-0.238 1.244,-0.479 1.85,-0.76 l 0.391,-0.18 0.895,2.148 -0.371,0.17 c -1.244,0.572 -2.549,1.033 -3.807,1.488 l -0.146,0.047 -0.115,-0.342 0.107,0.344 c -1.482,0.502 -2.744,0.879 -3.953,1.178 l -0.4,0.105 -0.57,-2.25 0.393,-0.113 c 0.281,-0.082 0.566,-0.154 0.85,-0.234 0.365,-0.09 0.734,-0.184 1.102,-0.299 l -0.184,-0.604 c -1.605,0.477 -2.891,0.807 -4.102,1.053 -1.24,0.279 -2.582,0.5 -4.188,0.707 l 0.072,0.621 c 0.541,-0.066 1.074,-0.152 1.604,-0.24 l 0.789,-0.125 0.369,2.295 -0.4,0.076 c -1.211,0.223 -2.449,0.355 -3.65,0.484 l -0.539,0.057 v -0.008 c -0.295,0.027 -0.584,0.047 -0.875,0.068 -1.033,0.07 -2.1,0.148 -3.158,0.135 l -0.41,-0.004 -0.037,-2.334 0.439,0.008 c 0.654,0.006 1.332,-0.029 1.988,-0.068 l -0.037,-0.613 c -1.189,0.072 -2.389,0.068 -3.555,0.068 l -0.359,-0.004 v 0.002 c -1.553,-0.043 -2.945,-0.145 -4.23,-0.273 l -0.064,0.613 c 0.143,0.014 0.287,0.025 0.436,0.039 0.523,0.049 1.043,0.102 1.559,0.139 l 0.424,0.027 -0.15,2.34 -0.434,-0.039 c -0.318,-0.029 -0.629,-0.059 -0.951,-0.082 -1.023,-0.092 -2.084,-0.178 -3.131,-0.359 v 0.01 c -1.305,-0.174 -2.6,-0.438 -3.859,-0.693 l -0.617,-0.123 0.49,-2.281 2.375,0.471 0.109,-0.605 c -1.279,-0.25 -2.582,-0.508 -3.865,-0.865 -1.557,-0.41 -2.859,-0.803 -4.055,-1.236 l -0.195,0.586 c 0.662,0.238 1.283,0.449 1.895,0.621 l 0.41,0.119 -0.668,2.23 -0.396,-0.113 c -1.189,-0.34 -2.357,-0.781 -3.49,-1.209 l -0.502,-0.191 0.143,-0.4 -0.158,0.395 c -1.15,-0.471 -2.484,-1.033 -3.773,-1.682 l -0.377,-0.186 0.996,-2.086 0.371,0.168 c 0.229,0.109 0.445,0.213 0.668,0.318 0.377,0.184 0.766,0.379 1.158,0.537 l 0.242,-0.57 c -1.455,-0.643 -2.672,-1.246 -3.809,-1.881 -1.195,-0.633 -2.4,-1.35 -3.656,-2.186 l -0.336,0.523 c 0.566,0.385 1.148,0.729 1.707,1.064 l 0.367,0.217 -1.17,2.002 -0.365,-0.205 c -1.076,-0.631 -2.107,-1.328 -3.113,-2.021 l -0.365,-0.25 -0.012,0.006 -0.592,-0.447 c -0.893,-0.656 -1.818,-1.342 -2.678,-2.088 l -0.314,-0.271 1.445,-1.801 0.324,0.277 c 0.48,0.393 1.014,0.84 1.57,1.254 l 0.367,-0.502 c -0.988,-0.746 -1.992,-1.58 -3.053,-2.535 -0.961,-0.848 -1.959,-1.813 -3.053,-2.945 l -0.443,0.436 c 0.27,0.273 0.535,0.551 0.809,0.814 0.209,0.205 0.422,0.414 0.627,0.619 l 0.291,0.303 -1.588,1.67 -0.301,-0.293 c -0.959,-0.93 -1.926,-1.943 -2.865,-3.006 l 0.365,-0.338 -0.371,0.332 c -0.918,-1.053 -1.816,-2.104 -2.641,-3.217 l -0.248,-0.334 1.828,-1.43 0.248,0.354 c 0.389,0.541 0.824,1.057 1.25,1.564 l 0.002,0.006 0.463,-0.391 c -0.797,-0.961 -1.545,-1.973 -2.416,-3.168 l 0.393,-0.283 -0.393,0.283 c -0.754,-1.07 -1.512,-2.25 -2.324,-3.602 l -0.525,0.305 1.281,2.094 -1.926,1.277 -0.424,-0.686 c -0.664,-1.088 -1.346,-2.205 -1.949,-3.355 h -0.004 c -0.586,-1.037 -1.092,-2.127 -1.58,-3.174 l -0.449,-0.969 2.111,-0.961 0.164,0.395 c 0.207,0.473 0.449,0.955 0.672,1.422 0.068,0.135 0.131,0.271 0.195,0.4 l 0.539,-0.277 c -0.561,-1.115 -1.096,-2.346 -1.744,-3.916 l 0.42,-0.18 -0.422,0.168 c -0.564,-1.465 -1.029,-2.799 -1.416,-4.047 l -0.574,0.17 c 0.051,0.145 0.092,0.285 0.131,0.432 0.16,0.504 0.316,1.01 0.49,1.508 l 0.139,0.398 -2.18,0.783 -0.352,-1.08 c -0.346,-1.078 -0.703,-2.193 -0.984,-3.328 l 0.002,0.008 c -0.334,-1.188 -0.584,-2.389 -0.828,-3.564 l -0.193,-0.945 2.256,-0.432 0.504,2.406 0.592,-0.143 c -0.273,-1.285 -0.541,-2.588 -0.723,-3.906 -0.242,-1.635 -0.395,-3.002 -0.471,-4.271 l -0.613,0.039 c 0.039,0.613 0.096,1.262 0.193,2.016 l 0.047,0.43 -2.283,0.25 -0.057,-0.412 c -0.131,-1.045 -0.188,-2.104 -0.244,-3.123 -0.02,-0.355 -0.037,-0.703 -0.061,-1.049 l 0.426,-0.027 -0.43,0.002 c 0,-0.379 0.002,-0.758 -0.004,-1.133 -0.016,-0.994 -0.027,-2.028 0.035,-3.053 l 0.027,-0.408 2.303,0.086 -0.039,0.438 c -0.027,0.645 -0.051,1.309 -0.045,2.032 l 0.611,-0.008 c -0.01,-1.303 0.068,-2.62 0.152,-3.891 l 0.002,-0.105 0.377,0.023 -0.377,-0.027 c 0.102,-1.307 0.264,-2.705 0.502,-4.273 l -0.598,-0.109 -0.357,2.439 -2.271,-0.281 0.148,-1.102 c 0.168,-1.17 0.34,-2.369 0.59,-3.549 0.195,-1.1 0.471,-2.197 0.738,-3.256 0.078,-0.273 0.145,-0.543 0.211,-0.818 l 0.102,-0.422 2.223,0.633 -0.107,0.412 c -0.143,0.506 -0.266,1.021 -0.387,1.539 -0.039,0.143 -0.072,0.291 -0.105,0.432 l 0.586,0.139 c 0.307,-1.273 0.68,-2.637 1.15,-4.139 l 0.439,0.145 -0.439,-0.156 c 0.543,-1.607 1.008,-2.871 1.492,-4.029 l -0.563,-0.238 c -0.051,0.137 -0.115,0.281 -0.164,0.418 -0.201,0.48 -0.408,0.977 -0.58,1.465 l -0.143,0.406 -2.162,-0.832 0.318,-0.811 c 0.434,-1.141 0.896,-2.303 1.436,-3.432 0.539,-1.229 1.174,-2.424 1.787,-3.584 l 0.277,-0.523 2,1.129 -1.127,2.178 0.541,0.273 c 0.621,-1.189 1.238,-2.359 1.932,-3.492 0.807,-1.342 1.57,-2.51 2.332,-3.551 l -0.494,-0.373 c -0.398,0.557 -0.787,1.098 -1.139,1.666 l -0.229,0.369 -1.91,-1.305 0.223,-0.354 c 0.646,-1.021 1.375,-2.002 2.086,-2.953 l 0.326,-0.436 0.314,0.242 -0.309,-0.25 c 0.996,-1.275 1.838,-2.287 2.664,-3.195 l 0.285,-0.305 1.688,1.561 -0.264,0.313 c -0.193,0.227 -0.385,0.441 -0.582,0.66 -0.256,0.283 -0.516,0.57 -0.758,0.871 l 0.475,0.402 c 0.811,-0.971 1.693,-1.984 2.656,-2.951 0.9,-0.955 1.912,-1.92 3.092,-2.951 l -0.398,-0.479 c -0.412,0.354 -0.814,0.734 -1.207,1.102 l -0.588,0.555 -1.561,-1.699 0.297,-0.295 c 0.891,-0.863 1.842,-1.674 2.764,-2.457 l 0.424,-0.359 0.248,0.301 -0.236,-0.314 0.615,-0.473 c 0.867,-0.68 1.766,-1.373 2.701,-2.002 l 0.348,-0.23 1.297,1.922 -0.35,0.242 c -0.535,0.367 -1.098,0.75 -1.635,1.174 l 0.373,0.496 c 1.191,-0.91 2.346,-1.705 3.496,-2.416 1.074,-0.695 2.291,-1.395 3.691,-2.123 l -0.281,-0.568 c -0.381,0.189 -0.758,0.408 -1.125,0.615 -0.207,0.121 -0.424,0.242 -0.641,0.363 l -0.361,0.201 -1.125,-2.02 0.361,-0.221 c 1.188,-0.688 2.414,-1.303 3.67,-1.928 l 0.029,-0.016 c 0.021,-0.004 0.039,-0.014 0.049,-0.021 l 0.566,-0.258 c 1.02,-0.463 2.078,-0.943 3.16,-1.328 l 0.383,-0.141 0.816,2.186 -0.406,0.146 c -0.637,0.225 -1.262,0.49 -1.846,0.75 l 0.24,0.566 c 1.215,-0.539 2.467,-0.99 3.656,-1.414 1.207,-0.422 2.51,-0.805 4.064,-1.215 l -0.145,-0.6 -2.34,0.631 -0.639,-2.24 1.1,-0.295 c 1.076,-0.293 2.184,-0.592 3.297,-0.809 1.012,-0.242 2.049,-0.408 3.055,-0.564 0.338,-0.053 0.666,-0.105 1.01,-0.158 l 0.416,-0.074 0.311,2.316 -2.396,0.391 0.107,0.605 c 1.438,-0.254 2.721,-0.42 3.914,-0.527 l 0.027,0.342 -0.027,-0.342 c 1.344,-0.121 2.781,-0.234 4.232,-0.238 l -0.012,-0.615 c -0.635,-0.002 -1.314,0.016 -1.986,0.066 l -0.432,0.029 -0.113,-2.33 0.402,-0.027 c 1.104,-0.088 2.219,-0.078 3.303,-0.076 0.305,0 0.613,0.002 0.916,0.002 v 0.42 l 0.02,-0.42 0.398,0.016 c 1.215,0.049 2.471,0.102 3.713,0.244 l 0.412,0.047 -0.227,2.314 -0.799,-0.076 c -0.525,-0.053 -1.068,-0.105 -1.611,-0.131 l -0.035,0.631 c 1.621,0.098 2.973,0.23 4.225,0.432 1.232,0.164 2.527,0.402 4.162,0.775 l 0.143,-0.613 c -0.367,-0.09 -0.748,-0.164 -1.109,-0.232 -0.297,-0.053 -0.584,-0.105 -0.861,-0.176 l -0.402,-0.078 0.416,-2.287 0.412,0.072 c 1.221,0.221 2.488,0.514 4.121,0.949 1.377,0.385 2.625,0.748 3.846,1.205 l 0.391,0.145 -0.758,2.207 -0.402,-0.154 c -0.592,-0.234 -1.227,-0.42 -1.832,-0.613 l -0.059,-0.014 -0.172,0.594 c 1.252,0.375 2.477,0.836 3.717,1.305 1.277,0.514 2.57,1.088 3.857,1.717 l 0.271,-0.551 -2.191,-1.045 0.932,-2.137 0.385,0.184 c 0.24,0.119 0.49,0.234 0.734,0.354 0.969,0.457 1.986,0.945 2.951,1.484 1.025,0.539 2.021,1.15 2.988,1.75 l 0.945,0.576 -1.236,1.979 -0.355,-0.221 c -0.439,-0.291 -0.898,-0.561 -1.348,-0.834 -0.125,-0.072 -0.248,-0.15 -0.377,-0.225 l -0.299,0.535 c 1.148,0.684 2.264,1.4 3.338,2.146 l -0.252,0.365 0.252,-0.365 c 1.309,0.939 2.4,1.762 3.389,2.586 l 0.381,-0.475 c -0.111,-0.092 -0.23,-0.188 -0.344,-0.287 -0.391,-0.326 -0.795,-0.672 -1.213,-0.965 l -0.357,-0.25 1.396,-1.875 0.33,0.258 c 1.07,0.826 2.201,1.73 3.268,2.707 1.084,0.951 2.148,2.016 2.996,2.871 l 0.299,0.305 -1.635,1.631 -1.74,-1.717 -0.412,0.449 c 1.156,1.133 2.1,2.117 2.955,3.088 l -0.293,0.264 0.293,-0.264 c 1.063,1.215 1.926,2.279 2.703,3.322 l 0.479,-0.373 c -0.066,-0.088 -0.133,-0.18 -0.197,-0.268 -0.332,-0.447 -0.672,-0.9 -1.031,-1.32 l -0.289,-0.33 1.789,-1.492 0.268,0.326 c 0.936,1.154 1.75,2.244 2.492,3.33 h 0.004 c 0.725,1.037 1.459,2.184 2.254,3.51 l 0.215,0.363 -1.965,1.199 -0.219,-0.354 c -0.162,-0.248 -0.309,-0.498 -0.463,-0.754 -0.195,-0.328 -0.4,-0.662 -0.6,-0.98 l -0.52,0.344 c 0.652,1.035 1.377,2.211 2.006,3.404 h 0.004 c 0.695,1.271 1.328,2.564 1.883,3.859 l 0.568,-0.252 c -0.299,-0.688 -0.607,-1.326 -0.861,-1.832 l -0.191,-0.391 2.059,-1.027 0.188,0.369 c 0.504,0.992 0.941,2.021 1.355,3.02 0.117,0.268 0.232,0.527 0.346,0.797 l -0.373,0.164 0.381,-0.141 c 0.096,0.262 0.191,0.523 0.291,0.791 0.383,1.021 0.771,2.076 1.082,3.15 l 0.117,0.398 -2.18,0.709 -0.131,-0.414 c -0.186,-0.617 -0.395,-1.277 -0.631,-1.928 l -0.572,0.215 c 0.395,1.092 0.768,2.285 1.191,3.818 0.406,1.453 0.713,2.91 0.961,4.193 l 0.605,-0.113 c -0.074,-0.381 -0.158,-0.762 -0.232,-1.131 -0.066,-0.287 -0.127,-0.584 -0.188,-0.869 l -0.082,-0.404 2.238,-0.523 0.09,0.418 c 0.355,1.641 0.615,2.982 0.781,4.219 0.221,1.342 0.34,2.713 0.461,4.033 l 0.045,0.547 -2.311,0.174 -0.016,-0.439 c -0.033,-0.518 -0.094,-1.053 -0.156,-1.566 -0.016,-0.145 -0.033,-0.299 -0.051,-0.447 l -0.59,0.076 c 0.16,1.418 0.238,2.842 0.318,4.285 l -0.404,0.021 0.404,-0.006 c 0.014,1.454 0.027,2.879 -0.047,4.299 l 0.604,0.039 c 0.01,-0.154 0.016,-0.307 0.018,-0.453 0.025,-0.518 0.055,-1.055 0.051,-1.576 l -0.006,-0.436 2.314,0.025 z" />
		<path
   style="fill:#006098"
   id="path92"
   d="m 300.074,380.788 0.359,-0.207 1.156,2.006 -2.158,1.211 0.293,0.559 0.094,-0.055 c 1.014,-0.563 2.064,-1.148 3.051,-1.795 l 0.217,0.342 -0.209,-0.352 c 0.994,-0.598 1.951,-1.287 2.879,-1.953 l 0.137,-0.104 -0.357,-0.51 c -0.324,0.246 -0.65,0.465 -0.971,0.689 -0.234,0.164 -0.469,0.33 -0.707,0.496 l -0.35,0.244 -1.277,-1.941 0.354,-0.236 c 1.131,-0.762 2.309,-1.635 3.701,-2.746 l 0.006,0.002 c 1.053,-0.885 2.16,-1.84 3.201,-2.854 l 0.301,-0.291 1.586,1.695 -0.324,0.293 c -0.209,0.191 -0.418,0.393 -0.625,0.588 -0.281,0.266 -0.568,0.541 -0.865,0.809 l 0.398,0.469 c 0.875,-0.779 1.752,-1.59 2.584,-2.463 0.91,-0.904 1.787,-1.887 2.551,-2.768 l -0.471,-0.416 -1.645,1.861 -1.672,-1.596 0.279,-0.309 c 1.201,-1.32 2.152,-2.443 2.992,-3.535 1.053,-1.385 1.928,-2.623 2.666,-3.783 l 0.227,-0.365 1.92,1.273 -0.234,0.361 c -0.141,0.207 -0.279,0.43 -0.414,0.637 -0.234,0.35 -0.467,0.719 -0.721,1.078 l 0.502,0.361 c 0.693,-0.988 1.357,-2.029 1.994,-3.084 l 0.383,0.234 -0.383,-0.234 c 0.586,-0.969 1.18,-2.023 1.842,-3.307 l -0.553,-0.293 c -0.076,0.137 -0.145,0.271 -0.215,0.406 -0.24,0.467 -0.492,0.947 -0.76,1.418 l -0.205,0.373 -1.984,-1.146 0.195,-0.369 c 0.873,-1.586 1.531,-2.902 2.088,-4.148 l 0.004,-0.002 c 0.65,-1.486 1.178,-2.74 1.611,-4.029 l 0.135,-0.416 2.152,0.789 -0.129,0.396 c -0.223,0.656 -0.465,1.305 -0.719,1.947 l 0.566,0.24 c 0.377,-0.896 0.689,-1.836 1.002,-2.746 l 0.256,-0.738 0.105,-0.367 c 0.314,-1.033 0.637,-2.107 0.893,-3.182 l -0.6,-0.148 c -0.166,0.66 -0.336,1.35 -0.545,2.02 l -0.127,0.389 -2.188,-0.658 0.123,-0.398 c 0.504,-1.742 0.85,-3.18 1.094,-4.516 0.299,-1.43 0.484,-2.881 0.666,-4.287 l 0.049,-0.416 2.268,0.26 -0.053,0.422 c -0.051,0.543 -0.131,1.08 -0.199,1.602 -0.029,0.158 -0.049,0.309 -0.07,0.457 l 0.615,0.1 c 0.197,-1.314 0.34,-2.492 0.42,-3.572 l -0.006,-0.002 c 0.133,-1.254 0.166,-2.541 0.195,-3.787 h -0.611 c -0.004,0.395 -0.027,0.799 -0.041,1.189 -0.018,0.287 -0.027,0.574 -0.043,0.861 l -0.012,0.439 -2.295,-0.131 0.018,-0.426 c 0.098,-1.529 0.092,-3.076 0.072,-4.647 -0.084,-1.576 -0.17,-3.115 -0.363,-4.65 l -0.053,-0.42 2.283,-0.283 0.041,0.434 c 0.025,0.289 0.066,0.578 0.096,0.865 0.043,0.385 0.088,0.789 0.125,1.188 l 0.605,-0.051 c -0.113,-1.209 -0.227,-2.451 -0.424,-3.656 l 0.416,-0.072 -0.416,0.061 c -0.156,-1.107 -0.371,-2.299 -0.682,-3.734 l -0.607,0.139 c 0.033,0.152 0.063,0.307 0.096,0.461 0.107,0.512 0.221,1.037 0.322,1.576 l 0.07,0.414 -2.246,0.416 -0.076,-0.412 c -0.268,-1.359 -0.588,-2.955 -1.039,-4.535 l 0.521,-0.148 -0.521,0.148 c -0.457,-1.697 -0.865,-2.975 -1.311,-4.143 l -0.15,-0.406 2.141,-0.807 0.152,0.387 c 0.26,0.67 0.484,1.332 0.678,1.971 l 0.596,-0.189 c -0.289,-0.91 -0.621,-1.813 -0.943,-2.691 -0.104,-0.266 -0.197,-0.525 -0.291,-0.783 -0.113,-0.268 -0.227,-0.525 -0.336,-0.793 -0.361,-0.854 -0.738,-1.746 -1.15,-2.584 l -0.561,0.279 c 0.268,0.541 0.572,1.207 0.857,1.889 l 0.152,0.387 -2.09,0.93 -0.166,-0.395 c -0.586,-1.387 -1.26,-2.781 -2.008,-4.15 -0.691,-1.324 -1.502,-2.623 -2.207,-3.738 l -0.229,-0.361 1.906,-1.273 0.223,0.355 c 0.303,0.449 0.584,0.91 0.861,1.367 0.078,0.129 0.154,0.258 0.236,0.391 l 0.533,-0.318 c -0.672,-1.135 -1.314,-2.119 -1.936,-3.016 -0.682,-0.994 -1.422,-1.984 -2.25,-3.031 l -0.477,0.389 c 0.275,0.34 0.537,0.691 0.783,1.039 0.156,0.193 0.303,0.396 0.461,0.602 l 0.262,0.348 -1.842,1.393 -0.254,-0.346 c -0.814,-1.129 -1.738,-2.27 -2.895,-3.604 l -0.002,0.008 c -0.914,-1.041 -1.932,-2.096 -3.215,-3.332 l -0.297,-0.295 1.563,-1.701 1.764,1.742 0.447,-0.436 c -0.939,-0.949 -1.758,-1.758 -2.645,-2.533 l 0.264,-0.314 -0.279,0.309 c -0.93,-0.859 -1.93,-1.658 -2.879,-2.412 l -0.367,0.498 c 0.309,0.242 0.615,0.506 0.916,0.748 0.219,0.182 0.43,0.367 0.666,0.543 l 0.34,0.27 -1.471,1.813 -0.324,-0.277 c -1.057,-0.906 -2.223,-1.797 -3.656,-2.818 h 0.004 c -1.164,-0.809 -2.389,-1.592 -3.633,-2.316 l -0.369,-0.221 1.143,-2.023 0.369,0.229 c 0.242,0.154 0.492,0.301 0.74,0.451 0.334,0.199 0.674,0.398 1,0.602 l 0.334,-0.518 -0.217,-0.137 c -0.949,-0.58 -1.93,-1.189 -2.926,-1.705 l 0.189,-0.385 -0.211,0.377 c -0.941,-0.539 -1.938,-1.02 -2.904,-1.479 -0.125,-0.051 -0.232,-0.104 -0.346,-0.162 l -0.252,0.582 2.229,1.064 -1.023,2.086 -0.369,-0.188 c -1.395,-0.688 -2.789,-1.322 -4.162,-1.871 -1.363,-0.516 -2.697,-1.012 -4.066,-1.404 l -0.404,-0.123 0.654,-2.234 0.863,0.262 c 0.484,0.154 0.99,0.309 1.486,0.479 l 0.201,-0.588 c -1.104,-0.387 -2.24,-0.715 -3.492,-1.066 -1.377,-0.367 -2.492,-0.627 -3.545,-0.832 l -0.111,0.627 c 0.146,0.025 0.289,0.061 0.439,0.09 0.512,0.1 1.049,0.197 1.574,0.346 l 0.391,0.109 -0.52,2.244 -0.408,-0.096 c -1.803,-0.416 -3.195,-0.682 -4.5,-0.854 l 0.045,-0.381 -0.055,0.381 c -1.33,-0.213 -2.777,-0.352 -4.559,-0.447 l -0.418,-0.027 0.121,-2.303 0.4,0.01 c 0.691,0.016 1.383,0.078 2.053,0.148 l 0.064,-0.637 c -1.082,-0.102 -2.186,-0.154 -3.254,-0.195 l -0.377,-0.02 c -0.309,0.002 -0.615,0 -0.928,-0.002 -0.928,0 -1.881,-0.008 -2.814,0.041 l 0.023,0.629 c 0.711,-0.035 1.398,-0.041 2.051,-0.039 h 0.416 l 0.018,2.33 -0.428,-0.002 c -1.553,-0.016 -3.121,0.104 -4.578,0.227 -1.275,0.121 -2.664,0.318 -4.254,0.592 l -0.41,0.078 -0.404,-2.301 2.434,-0.385 -0.08,-0.629 c -0.203,0.033 -0.406,0.061 -0.596,0.09 -0.982,0.152 -2.01,0.314 -2.982,0.555 l -0.1,-0.424 0.082,0.428 c -1.092,0.211 -2.193,0.508 -3.254,0.797 l -0.279,0.072 0.176,0.605 2.379,-0.639 0.539,2.262 -0.402,0.105 c -1.697,0.441 -3.09,0.842 -4.373,1.289 -1.299,0.461 -2.684,0.965 -4.002,1.568 l -0.387,0.178 -0.906,-2.135 0.371,-0.17 c 0.598,-0.27 1.236,-0.549 1.895,-0.797 l -0.227,-0.59 c -0.904,0.348 -1.818,0.764 -2.697,1.162 l -0.635,0.283 c -1.109,0.553 -2.205,1.098 -3.25,1.695 l 0.307,0.555 c 0.088,-0.051 0.182,-0.107 0.275,-0.156 0.498,-0.285 1.008,-0.574 1.541,-0.828 l 0.365,-0.17 1.027,2.061 -0.371,0.193 c -1.537,0.793 -2.842,1.543 -3.99,2.283 l -0.227,-0.367 0.215,0.373 c -1.236,0.76 -2.473,1.619 -3.766,2.623 l -0.34,0.262 -1.371,-1.848 0.32,-0.26 c 0.547,-0.438 1.107,-0.846 1.658,-1.225 l -0.35,-0.523 c -0.795,0.551 -1.568,1.154 -2.311,1.732 l -0.611,0.473 -0.412,0.354 c -0.814,0.682 -1.641,1.387 -2.42,2.131 l 0.422,0.457 c 0.496,-0.461 1,-0.939 1.539,-1.379 l 0.32,-0.26 1.475,1.76 -0.318,0.283 c -1.297,1.115 -2.391,2.15 -3.35,3.162 l -0.326,-0.309 0.318,0.324 c -1.049,1.045 -2.002,2.168 -2.881,3.223 l -0.271,0.326 -1.742,-1.475 0.25,-0.33 c 0.33,-0.438 0.697,-0.85 1.055,-1.24 0.094,-0.111 0.189,-0.225 0.291,-0.334 l -0.467,-0.426 c -0.717,0.805 -1.469,1.719 -2.328,2.82 l -0.336,0.438 c -0.611,0.826 -1.252,1.674 -1.82,2.553 l 0.512,0.352 c 0.379,-0.57 0.779,-1.125 1.188,-1.689 l 0.25,-0.34 1.84,1.385 -0.248,0.342 c -0.83,1.115 -1.672,2.375 -2.561,3.855 -0.746,1.221 -1.404,2.492 -2.08,3.785 l -0.186,0.369 -2.051,-1.037 1.156,-2.211 -0.537,-0.309 c -0.559,1.055 -1.121,2.129 -1.605,3.213 -0.547,1.127 -1.014,2.324 -1.457,3.479 l -0.006,0.014 0.572,0.219 c 0.145,-0.375 0.293,-0.744 0.445,-1.102 0.115,-0.27 0.217,-0.539 0.326,-0.807 l 0.158,-0.406 2.115,0.926 -0.166,0.389 c -0.533,1.24 -1.035,2.59 -1.625,4.354 -0.52,1.639 -0.918,3.107 -1.225,4.48 l -0.102,0.412 -2.23,-0.521 0.102,-0.42 c 0.066,-0.283 0.137,-0.564 0.207,-0.848 0.094,-0.387 0.186,-0.77 0.285,-1.154 l -0.592,-0.172 c -0.035,0.133 -0.064,0.266 -0.109,0.398 -0.258,1.043 -0.531,2.127 -0.719,3.186 l -0.428,-0.072 0.422,0.092 c -0.25,1.154 -0.408,2.346 -0.58,3.508 l -0.031,0.232 0.613,0.076 0.357,-2.469 2.266,0.385 -0.066,0.414 c -0.273,1.721 -0.453,3.232 -0.555,4.627 l -0.006,0.102 c -0.086,1.393 -0.176,2.836 -0.141,4.254 l 0.008,0.426 -2.293,0.012 0.004,-0.414 c -0.025,-0.74 -0.018,-1.42 0.01,-2.079 l -0.615,-0.031 c -0.037,0.861 -0.029,1.725 -0.018,2.569 0.002,0.373 0.014,0.744 0.012,1.119 0.023,0.352 0.039,0.699 0.064,1.055 0.037,0.873 0.086,1.764 0.184,2.641 l 0.617,-0.063 c -0.08,-0.758 -0.139,-1.439 -0.158,-2.084 l -0.016,-0.41 2.281,-0.146 0.016,0.438 c 0.07,1.361 0.227,2.826 0.49,4.623 0.193,1.422 0.502,2.855 0.789,4.236 l 0.094,0.414 -0.396,0.115 -1.826,0.43 -0.516,-2.443 -0.607,0.119 0.02,0.1 c 0.244,1.152 0.482,2.342 0.813,3.496 0.268,1.107 0.625,2.219 0.977,3.295 l 0.084,0.25 0.58,-0.211 c -0.123,-0.375 -0.246,-0.752 -0.359,-1.131 -0.082,-0.287 -0.176,-0.555 -0.266,-0.834 l -0.133,-0.422 2.197,-0.662 0.127,0.406 c 0.396,1.344 0.891,2.779 1.504,4.381 0.709,1.734 1.297,3.041 1.902,4.248 l 0.193,0.377 -2.047,1.063 -0.188,-0.398 c -0.121,-0.262 -0.25,-0.525 -0.373,-0.783 -0.174,-0.35 -0.35,-0.707 -0.516,-1.07 l -0.559,0.258 0.082,0.184 c 0.484,1.031 0.988,2.107 1.549,3.107 l -0.395,0.232 0.408,-0.221 c 0.578,1.121 1.244,2.213 1.9,3.273 l 0.516,-0.344 -1.293,-2.133 1.977,-1.176 0.215,0.357 c 0.877,1.482 1.695,2.762 2.498,3.91 0.951,1.311 1.764,2.396 2.646,3.43 l 0.273,0.328 -1.742,1.508 -0.559,-0.664 c -0.332,-0.414 -0.682,-0.832 -1.014,-1.26 l -0.484,0.377 c 0.729,0.969 1.521,1.887 2.344,2.83 0.82,0.939 1.672,1.828 2.52,2.67 l 0.43,-0.459 c -0.105,-0.111 -0.215,-0.221 -0.318,-0.328 -0.381,-0.373 -0.762,-0.75 -1.129,-1.16 l -0.271,-0.307 1.645,-1.592 0.295,0.309 c 1.176,1.244 2.258,2.289 3.283,3.199 h 0.004 c 1.162,1.049 2.258,1.951 3.332,2.744 l 0.338,0.248 -1.359,1.859 -0.334,-0.236 c -0.572,-0.41 -1.121,-0.852 -1.621,-1.275 l -0.398,0.492 c 0.752,0.619 1.551,1.215 2.322,1.793 l 0.525,0.385 0.414,0.283 c 0.875,0.6 1.781,1.217 2.699,1.777 l 0.322,-0.545 c -0.568,-0.346 -1.164,-0.717 -1.736,-1.113 l -0.338,-0.242 1.252,-1.938 0.348,0.234 c 1.367,0.926 2.652,1.705 3.941,2.383 l -0.197,0.375 0.203,-0.377 c 1.207,0.678 2.52,1.314 4.127,2.016 l 0.385,0.174 -0.891,2.121 -0.375,-0.146 c -0.557,-0.221 -1.086,-0.475 -1.6,-0.723 -0.09,-0.045 -0.188,-0.098 -0.277,-0.139 l -0.273,0.58 c 1.145,0.547 2.309,1.035 3.334,1.461 l 0.504,0.189 c 0.99,0.367 2.008,0.756 3.035,1.076 l 0.178,-0.602 c -0.619,-0.191 -1.25,-0.418 -1.943,-0.674 l -0.379,-0.145 0.768,-2.188 0.4,0.146 c 1.264,0.482 2.658,0.916 4.369,1.369 l -0.063,0.252 0.063,-0.252 c 1.357,0.373 2.758,0.646 4.123,0.908 l 0.48,0.094 -0.377,2.293 -2.42,-0.479 -0.135,0.615 c 1.176,0.236 2.387,0.482 3.58,0.633 l -0.045,0.404 0.064,-0.402 c 1.016,0.168 2.059,0.26 3.082,0.346 0.166,0.012 0.354,0.031 0.527,0.049 l 0.035,-0.623 c -0.395,-0.035 -0.783,-0.072 -1.164,-0.115 -0.281,-0.025 -0.568,-0.051 -0.854,-0.082 l -0.43,-0.039 0.254,-2.316 0.414,0.047 c 1.375,0.16 2.854,0.27 4.537,0.316 h 0.383 c 1.287,0.002 2.619,0.004 3.914,-0.1 l 0.422,-0.029 0.137,2.328 -0.559,0.033 c -0.619,0.043 -1.258,0.078 -1.896,0.084 l 0.008,0.631 c 0.893,-0.01 1.795,-0.078 2.672,-0.135 0.328,-0.025 0.65,-0.041 0.971,-0.068 l 0.43,-0.043 c 1.041,-0.117 2.117,-0.232 3.17,-0.408 l -0.1,-0.627 c -0.66,0.107 -1.355,0.223 -2.037,0.285 l -0.41,0.031 -0.26,-2.291 0.418,-0.057 c 1.77,-0.213 3.205,-0.439 4.516,-0.742 l 0.1,0.439 -0.088,-0.443 c 1.289,-0.252 2.664,-0.607 4.439,-1.154 l 0.391,-0.115 0.67,2.209 -0.381,0.125 c -0.514,0.191 -1.043,0.328 -1.549,0.455 -0.145,0.035 -0.287,0.08 -0.436,0.113 l 0.154,0.623 c 1.063,-0.283 2.188,-0.623 3.486,-1.063 l 0.137,-0.049 c 1.117,-0.393 2.27,-0.809 3.373,-1.283 l -0.248,-0.578 c -0.592,0.252 -1.201,0.484 -1.789,0.705 l -0.506,0.191 -0.793,-2.184 0.391,-0.143 c 1.275,-0.467 2.613,-1.043 4.217,-1.811 l 0.355,0.762 -0.35,-0.762 c 1.347,-0.641 2.672,-1.386 3.808,-2.036 m -24.312,5.608 c -1.107,0.039 -2.219,0.039 -3.316,0.004 -26.207,-0.873 -47.408,-22.428 -48.266,-49.088 -0.434,-13.542 4.357,-26.456 13.48,-36.346 9.131,-9.898 21.502,-15.584 34.842,-16.027 1.102,-0.035 2.217,-0.037 3.313,-0.002 26.213,0.869 47.416,22.432 48.264,49.082 0.432,13.553 -4.354,26.461 -13.473,36.356 -9.133,9.896 -21.51,15.581 -34.844,16.021" />
		<path
   style="fill:#006098"
   id="path94"
   d="m 269.484,367.616 v 0.271 l 1.23,0.002 -0.004,2.137 -1.229,-0.002 -0.002,0.416 -0.32,-0.002 v -0.414 l -1.234,-0.002 0.008,-2.139 1.229,0.004 0.002,-0.275 z m -0.324,2.11 0.004,-1.551 h -0.91 v 1.549 z m 0.324,-1.549 -0.002,1.551 h 0.885 l 0.004,-1.551 z" />
		<polygon
   style="fill:#006098"
   id="polygon96"
   points="271.318,370.239 272.588,368.903 272.588,368.483 271.361,368.483 271.361,368.165 272.588,368.165 272.588,367.604 272.939,367.606 272.939,368.165 274.191,368.171 274.191,368.487 272.938,368.483 272.934,368.903 274.234,370.226 273.977,370.448 272.762,369.21 271.574,370.444 " />
		<path
   style="fill:#006098"
   id="path98"
   d="m 275.135,370.448 h -0.338 l 0.002,-2.086 1.254,0.004 v -0.303 l -1.266,-0.002 v -0.297 l 1.266,0.002 0.002,-0.141 0.34,0.004 -0.002,0.137 h 1.293 v 0.301 l -1.293,-0.004 -0.002,0.303 h 1.268 l -0.006,2.088 h -0.512 v -0.307 h 0.178 l 0.002,-1.477 -2.186,-0.002 z m 1.265,-0.627 0.703,0.002 0.002,0.299 -0.705,-0.002 v 0.332 l -0.34,-0.004 v -0.328 l -0.709,-0.002 v -0.299 h 0.709 l 0.004,-0.277 h -0.688 v -0.297 l 0.969,0.004 0.342,-0.402 0.322,0.064 -0.281,0.338 0.35,-0.002 v 0.297 H 276.4 Z m -0.578,-0.978 0.26,0.223 -0.326,0.068 -0.271,-0.227 z" />
		<polygon
   style="fill:#006098"
   id="polygon100"
   points="281.137,367.892 281.137,368.198 279.047,368.196 279.006,368.786 281.066,368.79 280.986,370.462 280.248,370.458 280.232,370.153 280.672,370.155 280.736,369.091 278.951,369.091 278.547,370.454 278.25,370.354 278.67,368.88 278.729,368.194 278.252,368.194 278.254,367.89 279.621,367.892 279.496,367.646 279.828,367.569 279.977,367.892 " />
		<path
   style="fill:#00487a"
   id="path102"
   d="m 243.994,364.528 c 0,0 14.641,-16.064 25.281,-15.816 16.645,0.395 35.211,14.867 35.211,14.867 0,0 -24.561,-5.826 -36.357,-5.449 -9.19,0.295 -24.135,6.398 -24.135,6.398" />
		<rect
   style="fill:#0a67a1"
   id="rect104"
   height="1.6109999"
   width="3.973"
   transform="matrix(1,0.002,-0.002,1,0.6625,-0.549)"
   y="335.819"
   x="277.513" />
		
			<rect
   style="fill:#0a67a1"
   id="rect106"
   height="3.3340001"
   width="4.4159999"
   transform="matrix(1,0.0013,-0.0013,1,0.4405,-0.3662)"
   y="330.15799"
   x="274.03101" />
		
			<rect
   style="fill:#0a67a1"
   id="rect108"
   height="3.3380001"
   width="4.5450001"
   transform="matrix(1,0.0013,-0.0013,1,0.428,-0.3644)"
   y="330.16901"
   x="280.595" />
		<rect
   style="fill:#0a67a1"
   id="rect110"
   height="3.3399999"
   width="4.4180002"
   transform="matrix(1,0.0018,-0.0018,1,0.5775,-0.488)"
   y="324.63699"
   x="274.04001" />
		<path
   style="fill:#006098"
   id="path112"
   d="m 283.047,304.401 -2.658,1.986 c 2.545,0.852 6.033,2.451 8.424,5.285 3.902,4.629 8.713,17.963 8.922,18.525 l -2.844,1.809 c -0.049,-0.133 -4.859,-14.104 -8.404,-18.307 -3.348,-3.973 -9.787,-5.092 -9.854,-5.105 -0.467,-0.068 -0.859,-0.359 -1.084,-0.762 -0.23,0.41 -0.631,0.703 -1.102,0.764 -0.072,0.014 -7.111,1.109 -10.471,5.061 -3.578,4.213 -9.701,17.986 -9.756,18.121 l -2.645,-1.715 c 0.232,-0.557 6.189,-13.852 10.088,-18.445 2.447,-2.883 6.248,-4.479 8.98,-5.301 l -2.98,-2.246 c -3.635,0.418 -8.512,1.535 -9.898,3.443 -6.43,8.805 -12.041,44.499 -13.842,57.014 15.031,-13.447 22.623,-15.436 26.791,-14.965 8.061,0.902 22.67,7.73 33.771,14.016 -1.715,-14.268 -6.025,-45.661 -11.652,-54.319 -1.294,-1.988 -6.081,-3.836 -9.786,-4.859 m -14.945,41.633 -2.145,-0.145 1.191,-18.122 -2.389,-0.004 -1.898,17.924 -2.135,-0.236 2.002,-18.895 1.066,-0.971 3.5,0.006 0.359,-5.605 -4.604,-0.008 0.004,-2.18 5.754,0.012 1.066,1.158 z m 20.693,-0.043 -9.311,-0.018 -9.129,-0.018 0.006,-2.176 8.049,0.018 0.002,-1.074 -5.502,-0.012 -1.064,-1.094 0.01,-4.488 2.141,0.004 -0.008,3.4 4.43,0.01 v -0.932 l -1.986,-0.004 -1.068,-1.096 0.008,-2.85 -2.424,-0.004 -1.064,-1.09 0.021,-11.025 1.068,-1.09 5.492,0.01 0.004,-1.398 -5.836,-0.012 0.006,-2.17 5.834,0.01 0.002,-1.979 2.148,0.002 -0.004,1.98 5.916,0.01 -0.004,2.174 -5.916,-0.012 -0.002,1.4 5.619,0.008 1.068,1.1 -0.021,11.021 -1.07,1.086 -2.578,-0.004 -0.006,2.848 -1.072,1.09 -1.988,-0.002 -0.002,0.932 4.539,0.006 0.01,-3.719 2.139,0.002 -0.012,4.813 -1.068,1.086 -5.611,-0.008 -0.004,1.074 8.244,0.018 z" />
		
			<rect
   style="fill:#0a67a1"
   id="rect114"
   height="3.3440001"
   width="4.5450001"
   transform="matrix(1,0.0026,-0.0026,1,0.8423,-0.7283)"
   y="324.64899"
   x="280.60501" />
		<path
   style="fill:#0a67a1"
   id="path116"
   d="m 314.369,336.683 c 0.039,-20.448 -14.572,-37.444 -33.773,-40.745 0.76,1.498 1.525,3.652 2.006,5.137 2.729,0.668 9.518,3.643 12.785,6.471 7.367,6.381 24.08,20.986 11.764,52.54 4.537,-6.642 7.201,-14.706 7.218,-23.403" />
		<path
   style="fill:#0a67a1"
   id="path118"
   d="m 255.303,305.661 c 3.619,-2.279 9.939,-4.5 12.807,-4.758 0.523,-1.625 1.354,-3.947 2.203,-5.391 -20.75,1.785 -37.074,19.451 -37.111,41.012 -0.018,9.297 2.998,17.879 8.088,24.791 -13.772,-36.773 6.415,-50.861 14.013,-55.654" />
		<path
   style="fill:#0a67a1"
   id="path120"
   d="m 275.555,306.292 c 0.105,-0.182 0.242,-0.352 0.414,-0.486 l 3.982,-2.951 c -0.787,-2.516 -1.951,-5.563 -2.43,-6.113 -1.092,-1.121 -3.143,-1.102 -4.396,0.051 -0.471,0.512 -1.574,3.383 -2.32,5.768 l 4.33,3.244 c 0.176,0.135 0.316,0.305 0.42,0.487" />
	</g>
</g>
</svg>